<svg width="36" height="33" viewBox="0 0 36 33" fill="none" xmlns="http://www.w3.org/2000/svg">
<rect x="1" y="1" width="34" height="31" rx="7" fill="white" stroke="#C5C5C5" stroke-width="2"/>
<path d="M17.5 8C13.3569 8 10 11.4146 10 15.6289C10 19.8433 13.3569 23.2579 17.5 23.2579C21.6431 23.2579 25 19.8433 25 15.6289C25 11.4146 21.6431 8 17.5 8ZM20.2971 17.6285L19.6922 18.3975C19.6525 18.448 19.6035 18.49 19.5478 18.5212C19.4921 18.5524 19.431 18.5721 19.3678 18.5792C19.3047 18.5864 19.2407 18.5808 19.1797 18.5628C19.1187 18.5448 19.0617 18.5148 19.0121 18.4744L16.9859 16.9449C16.8443 16.8296 16.73 16.6834 16.6515 16.5171C16.573 16.3508 16.5322 16.1687 16.5323 15.9842V11.1992C16.5323 11.0687 16.5832 10.9435 16.674 10.8512C16.7647 10.7589 16.8878 10.707 17.0161 10.707H17.9839C18.1122 10.707 18.2353 10.7589 18.326 10.8512C18.4168 10.9435 18.4677 11.0687 18.4677 11.1992V15.6289L20.2218 16.9363C20.2714 16.9767 20.3128 17.0267 20.3434 17.0833C20.3741 17.14 20.3934 17.2022 20.4004 17.2665C20.4074 17.3308 20.4019 17.3958 20.3842 17.4579C20.3664 17.5201 20.3368 17.578 20.2971 17.6285Z" fill="#C5C5C5"/>
</svg>
