<svg width="20" height="19" viewBox="0 0 20 19" fill="none" xmlns="http://www.w3.org/2000/svg">
<path d="M10.1138 0C4.83363 0 0.555573 4.12527 0.555573 9.21681C0.555573 14.3084 4.83363 18.4336 10.1138 18.4336C15.3939 18.4336 19.6719 14.3084 19.6719 9.21681C19.6719 4.12527 15.3939 0 10.1138 0ZM15.6637 10.2574C15.6637 10.5027 15.4555 10.7034 15.2012 10.7034H11.6554V14.1225C11.6554 14.3678 11.4473 14.5685 11.1929 14.5685H9.0346C8.78023 14.5685 8.57211 14.3678 8.57211 14.1225V10.7034H5.02633C4.77196 10.7034 4.56384 10.5027 4.56384 10.2574V8.17621C4.56384 7.93092 4.77196 7.73023 5.02633 7.73023H8.57211V4.31109C8.57211 4.0658 8.78023 3.86512 9.0346 3.86512H11.1929C11.4473 3.86512 11.6554 4.0658 11.6554 4.31109V7.73023H15.2012C15.4555 7.73023 15.6637 7.93092 15.6637 8.17621V10.2574Z" fill="#28A748"/>
</svg>
