<svg width="147" height="151" viewBox="0 0 147 151" fill="none" xmlns="http://www.w3.org/2000/svg">
<path d="M73.5 0C32.907 0 0 33.7763 0 75.4418C0 117.107 32.907 150.884 73.5 150.884C114.093 150.884 147 117.107 147 75.4418C147 33.7763 114.093 0 73.5 0ZM73.5 14.6016C106.258 14.6016 132.774 41.8127 132.774 75.4418C132.774 109.066 106.264 136.282 73.5 136.282C40.7415 136.282 14.2258 109.071 14.2258 75.4418C14.2258 41.8179 40.7365 14.6016 73.5 14.6016ZM115.052 54.229L108.373 47.3181C106.99 45.8869 104.738 45.8774 103.344 47.2975L61.4513 89.9513L43.7307 71.615C42.3476 70.1837 40.0957 70.1743 38.7013 71.594L31.9681 78.4494C30.5736 79.8691 30.5644 82.1805 31.9479 83.612L58.8528 111.451C60.2359 112.883 62.4877 112.892 63.8822 111.472L115.033 59.3916C116.427 57.9716 116.436 55.6602 115.052 54.229Z" fill="white" fill-opacity="0.5"/>
</svg>
