<svg width="36" height="33" viewBox="0 0 36 33" fill="none" xmlns="http://www.w3.org/2000/svg">
<rect x="1" y="1" width="34" height="31" rx="7" fill="white" stroke="#C5C5C5" stroke-width="2"/>
<path d="M16.7292 22.9521C11.0535 16.6741 10 16.0298 10 13.7225C10 10.562 13.3579 8 17.5 8C21.6421 8 25 10.562 25 13.7225C25 16.0298 23.9465 16.6741 18.2708 22.9521C17.8983 23.3626 17.1016 23.3626 16.7292 22.9521ZM17.5 16.1069C19.2259 16.1069 20.625 15.0394 20.625 13.7225C20.625 12.4056 19.2259 11.3381 17.5 11.3381C15.7741 11.3381 14.375 12.4056 14.375 13.7225C14.375 15.0394 15.7741 16.1069 17.5 16.1069Z" fill="#C5C5C5"/>
</svg>
